<svg xmlns="http://www.w3.org/2000/svg" xmlns:xlink="http://www.w3.org/1999/xlink" width="81.1" height="138.8" viewBox="0 0 81.1 138.8">
  <defs>
    <style>
      .cls-1, .cls-8 {
        fill: none;
      }

      .cls-2 {
        fill: #ececec;
      }

      .cls-3 {
        fill: #d3d3d3;
      }

      .cls-4 {
        fill: #d9d9d9;
      }

      .cls-5 {
        fill: #cfcfcf;
      }

      .cls-6 {
        fill: #b1b1b1;
      }

      .cls-7 {
        fill: #a7a6a6;
      }

      .cls-8 {
        stroke: #c6c6c5;
        stroke-miterlimit: 10;
        stroke-width: 0.22px;
      }

      .cls-9 {
        fill: #c6c6c5;
      }

      .cls-10 {
        fill: #efc400;
      }

      .cls-11 {
        fill: #f8e08c;
        opacity: 0.8;
      }

      .cls-12 {
        fill: #e8bf00;
      }

      .cls-13 {
        fill: #3c3c3b;
      }

      .cls-14 {
        fill: #363635;
      }

      .cls-15 {
        fill: #7c7b7b;
      }

      .cls-16, .cls-18 {
        fill: #ffec00;
      }

      .cls-16 {
        opacity: 0.2;
      }

      .cls-17 {
        fill: #6f6f6e;
      }

      .cls-18 {
        opacity: 0.21;
      }

      .cls-19 {
        fill: #d10a11;
      }

      .cls-20 {
        fill: #c50c0e;
      }

      .cls-21 {
        fill: #bf0d0d;
      }

      .cls-22 {
        fill: #b60e0c;
      }

      .cls-23 {
        fill: #e3e3e2;
      }

      .cls-24 {
        fill: #bae1f1;
      }

      .cls-25 {
        clip-path: url(#clip-path);
      }

      .cls-26 {
        fill: #d0e9f2;
      }

      .cls-27 {
        fill: #80c7e4;
      }

      .cls-28 {
        fill: #b17f49;
      }

      .cls-29 {
        fill: #aa7a46;
      }

      .cls-30 {
        fill: #5c5c5b;
      }

      .cls-31 {
        fill: #e20613;
      }

      .cls-32 {
        fill: #575756;
      }

      .cls-33 {
        fill: #686868;
      }
    </style>
    <clipPath id="clip-path">
      <rect class="cls-1" x="28.6" y="34.9" width="44.1" height="31.2" rx="14.9" transform="translate(101.9 100.3) rotate(179.3)"/>
    </clipPath>
  </defs>
  <g id="Camada_2" data-name="Camada 2">
    <g id="Camada_1-2" data-name="Camada 1">
      <g id="novo">
        <g>
          <path class="cls-2" d="M35.9,100.9a77.6,77.6,0,0,1-4.6,9.1,30.2,30.2,0,0,1-3.1,4.5,10,10,0,0,1-2.3,2.3,13,13,0,0,1-2.1,1.2h-1l-.9.2a26.4,26.4,0,0,1-5.6.1,45.2,45.2,0,0,1-5.3-.6,33,33,0,0,1-5.2-1.3c-1.8-.5-2.4-.2-4.2-1.2l1.2-6.8c1,.6.6-.2,1.9.3s5.6,1.1,7,1.4l5.1.6a18.6,18.6,0,0,0,4.1,0h.6c-.2.1-.1.1,0,0l1.1-1a31.2,31.2,0,0,0,2.5-3.5c1.6-2.6,3.1-5.4,4.5-8.2Z"/>
          <polygon class="cls-3" points="22.4 106.3 32.4 112.9 39.1 101.8 29.6 97 22.4 106.3"/>
          <g>
            <polygon class="cls-4" points="4.7 125.3 3.8 126.3 2.1 126 0 109.5 3.8 109 4.7 125.3"/>
            <polygon class="cls-5" points="3.4 124.6 2.1 124.5 4.2 123.9 2 123.7 4.1 123 2.2 122.5 4.2 121.8 1.7 121.4 4.3 120.3 1.5 120.3 4 119.5 1.4 119 4.4 117.9 1.2 117.6 3.4 116.9 1.1 116.6 3.3 116 1 115.8 4 115.1 0.8 114.9 3.7 113.8 1 113.4 3.7 112.8 1.1 112.4 3.2 111.7 0.4 111.6 2.6 111 0.6 110.6 3.2 109.8 7.1 117.8 5 124.6 3.4 124.6"/>
            <path class="cls-6" d="M2.4,108.3s8.7.7,8.2,10.9-6.8,7.5-6.8,7.5Z"/>
            <path class="cls-7" d="M3.8,126.7s6.4,1.7,6.9-7.2a13.7,13.7,0,0,0-.7-5.1c0,.1-2.5,8.5-6.6,7.3Z"/>
          </g>
        </g>
        <g>
          <g>
            <g>
              <path class="cls-4" d="M59.6,74.8a26.2,26.2,0,0,0-3,7.4c-.7,2.5-.6,5.1.3,6.6a3.5,3.5,0,0,0,.8,1,4.8,4.8,0,0,0,1.1.9,7.9,7.9,0,0,0,2.7,1,10.3,10.3,0,0,0,3-.1,18.6,18.6,0,0,0,3.1-1l3,8a24.4,24.4,0,0,1-5.4.9,14.9,14.9,0,0,1-5.5-.7,13.6,13.6,0,0,1-5.1-2.9,12.9,12.9,0,0,1-1.9-2.1,8.7,8.7,0,0,1-1.4-2.7,9.6,9.6,0,0,1-.7-2.8,22.6,22.6,0,0,1,.1-2.7,23.4,23.4,0,0,1,1.2-4.9A32.9,32.9,0,0,1,54,76.5a42.8,42.8,0,0,1,2.6-3.8Z"/>
              <path class="cls-8" d="M57,75.5C54.9,79,51,87,55.3,92s9.2,3.9,12.2,3.1"/>
              <path class="cls-9" d="M56.3,80.7s-3.1-.5-4-.1S53.8,79.5,56.3,80.7Z"/>
              <path class="cls-9" d="M55.7,83.4s-3.1-.2-4,.2S53.1,82.4,55.7,83.4Z"/>
              <path class="cls-9" d="M55.5,86.1a17,17,0,0,0-3.9.9S52.8,85.6,55.5,86.1Z"/>
              <path class="cls-9" d="M55.5,88.5s-2.8,1.5-3.3,2.3S52.8,89.1,55.5,88.5Z"/>
              <path class="cls-9" d="M56.6,90.5s-2.4,2.1-2.7,3S54,91.7,56.6,90.5Z"/>
              <path class="cls-9" d="M58.8,91.9s-1.9,2.8-2,3.9S56.4,93.8,58.8,91.9Z"/>
              <path class="cls-9" d="M61.2,92.7s-1.1,3.6-.9,4.8S59.3,95.5,61.2,92.7Z"/>
              <path class="cls-9" d="M63.5,92.6s-.4,4.3.1,5.5S62.1,96.1,63.5,92.6Z"/>
              <path class="cls-9" d="M57.2,78.5a14.1,14.1,0,0,0-3.4-1.2A3.6,3.6,0,0,1,57.2,78.5Z"/>
            </g>
            <g>
              <path class="cls-10" d="M80.9,91l-4.6,2.1A3.3,3.3,0,0,1,75,95.9a3.6,3.6,0,0,1-4.9-.7,3.4,3.4,0,0,1,.7-4.7,3.5,3.5,0,0,1,4.2,0l2.8-3.9a8,8,0,0,0-9.1.1,7.6,7.6,0,0,0-1.6,10.7A8,8,0,0,0,78,98.9,7.5,7.5,0,0,0,80.9,91Z"/>
              <ellipse class="cls-11" cx="78.1" cy="96.5" rx="1" ry="1" transform="translate(-18.5 174.5) rotate(-89.9)"/>
              <path class="cls-12" d="M70.8,85.6c.5,4.1-5.1,8.5-5.1,8.5a7.6,7.6,0,0,1,3-7.4Z"/>
            </g>
          </g>
          <circle class="cls-6" cx="56.9" cy="74.5" r="2.9"/>
        </g>
        <g>
          <g>
            <g>
              <path class="cls-13" d="M32.1,69.6s-9.5.1-12.3,15.7,9.7,18.3,24,17.9C60,102.7,57,90.1,56.4,82S49,71.4,45.1,70.7,32.1,69.6,32.1,69.6Z"/>
              <path class="cls-14" d="M46,96s-13.1.6-20.8,4.3a16,16,0,0,1-3.1-2.7c-.9-1.4,4.2-6.4,4.2-6.4l10.8-7.9,7.1,1.6L48.1,91Z"/>
            </g>
            <g>
              <path class="cls-15" d="M43.6,69.8,38.8,94.5s-9.4,1.2-12.5,2.2l-6,1.9s-3.5-10-1.2-16.2c4-11,11-13.1,11-13.1Z"/>
              <path class="cls-16" d="M43.1,69.7,38.4,94s-12.6,1.5-18.3,4l.2.6s7.1-2.3,8.5-2.5l10-1.6,4.8-24.7Z"/>
              <path class="cls-17" d="M20.1,98c-.7-2.3-3-10.3-1-15.6,4-11,11-13.1,11-13.1l10.7.4h.3S21.5,77.2,20.1,98Z"/>
            </g>
            <g>
              <path class="cls-15" d="M49.8,71,48.2,95.7l8.1,6.1a44.6,44.6,0,0,0,2.2-18.9c-1-11-4.1-10.8-4.1-10.8Z"/>
              <path class="cls-17" d="M49.8,71l1.7.4a27.9,27.9,0,0,1-.4,4.7c-.4,1.5.4,10.5.4,10.5L49.7,96.8l-1.5-1.1Z"/>
              <polygon class="cls-18" points="56.5 101.1 48.5 95.1 50.1 71.1 49.8 71 48.2 95.7 56.3 101.8 56.5 101.1"/>
            </g>
            <path class="cls-4" d="M22.5,98.2c4.3,4.5,12.4,5.6,21.3,5.3a15.2,15.2,0,0,0,9-2.8C41,96,22.6,98.2,22.5,98.2Z"/>
          </g>
          <g>
            <path class="cls-19" d="M51.1,75.5,52,85.9a1.9,1.9,0,0,1-.2.7l-3.6,5.5a.9.9,0,0,1-1.7-.3l-2.2-6.3a.9.9,0,0,1,0-.7l3.5-9.5Z"/>
            <path class="cls-20" d="M47.3,92.5a.8.8,0,0,1-.8-.7l-2.2-6.3a.9.9,0,0,1,0-.7l3.1-8.5,1.2.2s-3.3,7.5-3.4,8.7S46.8,91,47.3,92.5Z"/>
            <path class="cls-21" d="M49.3,77.4c3.4.5,4.3-4.8,2-5.6s-3.9.2-4.4,2.2S46.7,77,49.3,77.4Z"/>
            <path class="cls-22" d="M47.8,77c-1.2-.6-1.3-1.5-.9-3s1-2.5,2.4-2.5h.1s-2.1,2.6-1.6,5.3Z"/>
          </g>
        </g>
        <g>
          <g>
            <path class="cls-23" d="M33,72.1c16.4,0,38.9,2.7,39.7-20.8,1-12.2-8-23.3-20-23l-20.3.2C6.2,28.9,6.7,72.4,33,72.1Z"/>
            <g>
              <path class="cls-24" d="M43.1,66c12.6.1,29.4,1.6,29.1-16.3S54.7,34.8,42.8,35.1C23.5,35.5,23.9,66.2,43.1,66Z"/>
              <g class="cls-25">
                <g>
                  <polygon class="cls-26" points="29.5 41.3 54.3 64.2 18.5 64.7 29.5 41.3"/>
                  <polygon class="cls-26" points="36.1 34.2 63.7 61.5 70.8 62.2 38.8 30.1 36.1 34.2"/>
                  <polygon class="cls-26" points="48.1 32.7 74 59 76.5 55.8 50.4 31.3 48.1 32.7"/>
                </g>
              </g>
              <path class="cls-2" d="M58.7,35.4a12.5,12.5,0,0,1,5.1,1,15.5,15.5,0,0,1,4.3,2.9A14.2,14.2,0,0,1,71,43.6a16.2,16.2,0,0,1,1.1,5.3v2.6a13.2,13.2,0,0,1-1,5.3,12.7,12.7,0,0,1-2.8,4.4,13.1,13.1,0,0,1-4.1,3,13,13,0,0,1-5.1,1.1l-16.5.2a11.1,11.1,0,0,1-5.1-1,13.3,13.3,0,0,1-4.3-2.8,14.6,14.6,0,0,1-2.9-4.4,15.1,15.1,0,0,1-1.1-5.2V49.4a13.9,13.9,0,0,1,1-5.3A13.7,13.7,0,0,1,33,39.7a17.3,17.3,0,0,1,4.1-3,13,13,0,0,1,5.1-1.1l16.5-.2m0-.6L42.2,35A14.1,14.1,0,0,0,28.6,49.4v2.7c.1,7.8,6.4,14.2,14,14.1L59.1,66A14.1,14.1,0,0,0,72.7,51.5V48.9a14.1,14.1,0,0,0-14-14.1Z"/>
            </g>
          </g>
          <g>
            <path class="cls-27" d="M68.3,51.2H65.4s-.3-4.7-3.1-5.1-2.9,5.2-2.9,5.2H56.6s-1-7.9,5.3-8S68.3,51.2,68.3,51.2Z"/>
            <path class="cls-27" d="M37.8,51.6h3.1s.2-4.7,3.3-5.1,3.3,5.1,3.3,5.1h3.1s.9-7.9-6.1-7.9S37.8,51.6,37.8,51.6Z"/>
          </g>
          <g>
            <path class="cls-28" d="M44,54.9a8.8,8.8,0,0,1,9.4,4.3,8.9,8.9,0,0,1,9.3-4.6c6.8,1,3.9,12.3,15.3,7.2,0,0-5.7,19.4-23.8,7.9a1.1,1.1,0,0,0-1.3,0c-18,12-26.5-6.9-26.5-6.9C37.8,67.6,37.3,56,44,54.9Z"/>
            <path class="cls-29" d="M51.8,67.3l-1.2.8-.7.3c-.1.1.2-.1.1,0h-.3l-.4.2-1.9.7a7.9,7.9,0,0,1-2.2.6H40.4l-2.8-.7-.4-.2H37s-.2-.1-.1,0-.1-.1-.1-.1h-.2l-.4-.2-1.6-1a8.1,8.1,0,0,1-1.4-1.2,12.9,12.9,0,0,1-1.6-1.7.9.9,0,0,0-1.3,0,1.2,1.2,0,0,0,0,1.6,17.2,17.2,0,0,0,5.9,4.6,15.4,15.4,0,0,0,5.9,1.4,19.2,19.2,0,0,0,9-2.4l1.7-.9a1.4,1.4,0,0,0,.3-1.5.9.9,0,0,0-1.3-.4Z"/>
            <path class="cls-29" d="M56.2,67.3l1.1.7.6.3c.1.1-.2-.1-.1,0h.3l.3.2,1.7.6,2,.6h4.2c.2,0-.2.1.1,0a11.3,11.3,0,0,0,2.4-.8l.4-.2h.1c.1,0,.2-.1.2,0s.1-.1.1-.1h.1l.4-.2,1.4-1.1L72.7,66c.5-.5.9-1.1,1.4-1.7a.7.7,0,0,1,1.2,0,1.4,1.4,0,0,1,0,1.5,16.9,16.9,0,0,1-5.2,4.8,9.8,9.8,0,0,1-5.2,1.5A14.9,14.9,0,0,1,56.8,70a4.2,4.2,0,0,1-1.4-.9,1.1,1.1,0,0,1-.3-1.4.7.7,0,0,1,1.1-.4Z"/>
          </g>
        </g>
        <g>
          <g>
            <g>
              <path class="cls-4" d="M25.2,75.7a30.2,30.2,0,0,0-7.9-1.2c-2.6-.1-5,.5-6.3,1.7a3.9,3.9,0,0,0-.8,1c-.2.4-.5.9-.7,1.4a6.5,6.5,0,0,0-.3,2.8,8.4,8.4,0,0,0,.8,2.9,12.8,12.8,0,0,0,1.6,2.8L4.4,91.8a23.7,23.7,0,0,1-2-5,17.5,17.5,0,0,1-.6-5.6,15.2,15.2,0,0,1,1.7-5.6l1.6-2.3a10.7,10.7,0,0,1,2.3-2A11.1,11.1,0,0,1,10.1,70l2.6-.5a20.7,20.7,0,0,1,5,.1,34.3,34.3,0,0,1,4.6,1.1,38.3,38.3,0,0,1,4.3,1.7Z"/>
              <path class="cls-8" d="M24,73.4c-3.9-1.3-12.6-3.2-16.5,2S5.8,85.2,7.2,88"/>
              <path class="cls-9" d="M18.7,73.9s-.2-3.1-.8-3.9S19.3,71.2,18.7,73.9Z"/>
              <path class="cls-9" d="M15.9,73.9s-.5-3.1-1.1-3.9S16.3,71.1,15.9,73.9Z"/>
              <path class="cls-9" d="M13.3,74.3a16.8,16.8,0,0,0-1.8-3.6S13.1,71.5,13.3,74.3Z"/>
              <path class="cls-9" d="M10.9,74.8a17.3,17.3,0,0,0-3-2.7A4.1,4.1,0,0,1,10.9,74.8Z"/>
              <path class="cls-9" d="M9.2,76.3s-2.6-1.8-3.5-1.9S7.5,74.1,9.2,76.3Z"/>
              <path class="cls-9" d="M8.4,78.8s-3.2-1.2-4.2-1.1S6,76.9,8.4,78.8Z"/>
              <path class="cls-9" d="M8.1,81.4s-3.8-.4-4.8.1S5,80.1,8.1,81.4Z"/>
              <path class="cls-9" d="M8.7,83.6s-4.3.5-5.3,1.3S4.9,82.9,8.7,83.6Z"/>
              <path class="cls-9" d="M21.1,74.3s.6-2.8.3-3.6S22.3,72.1,21.1,74.3Z"/>
            </g>
            <g>
              <path class="cls-10" d="M14.2,100.1l-3-3.9a3.8,3.8,0,0,1-3.1-.7,3.6,3.6,0,0,1-.4-4.9,3.2,3.2,0,0,1,4.7-.4,3.4,3.4,0,0,1,.9,4.1l4.5,1.8a7.8,7.8,0,0,0-2.2-8.8,7.4,7.4,0,0,0-10.7.9,7.9,7.9,0,0,0,.9,10.9A7.5,7.5,0,0,0,14.2,100.1Z"/>
              <ellipse class="cls-11" cx="8.2" cy="98.7" rx="1" ry="1" transform="translate(-21.6 4.3) rotate(-12.8)"/>
              <path class="cls-12" d="M17.1,89.1C13.3,90.5,7.7,86,7.7,86a7.5,7.5,0,0,1,7.9,1.3A6.5,6.5,0,0,1,17.1,89.1Z"/>
            </g>
          </g>
          <circle class="cls-6" cx="25.2" cy="73.4" r="2.9"/>
        </g>
        <g>
          <path class="cls-2" d="M40.3,100.2c2.9,1.9,5.7,2.6,8.3,4.9a27.3,27.3,0,0,1,3.8,3.8,14.3,14.3,0,0,1,1.9,2.7,21.9,21.9,0,0,1,.7,2.3V115a1.1,1.1,0,0,1,0,.8,31.5,31.5,0,0,1-.8,5.6c-.5,1.7-1,3.4-1.6,5.1s-1.4,3.3-2.2,4.9a27.9,27.9,0,0,1-3.2,4.7l-6.1-5.2a21.3,21.3,0,0,0,2.3-3.3c.7-1.3,1.3-2.6,1.9-4a35.2,35.2,0,0,0,1.5-4.2,33.8,33.8,0,0,0,.7-4c.1-.1,0-.2.1-.3v-.2h0c0,.2,0,.1-.1,0a5.3,5.3,0,0,0-.8-1.4,42.4,42.4,0,0,0-3-3.1,82.9,82.9,0,0,0-7.2-5.8Z"/>
          <polygon class="cls-4" points="43.2 113.1 50.8 105.2 41.1 99.1 32.1 102.2 43.2 113.1"/>
          <g>
            <polygon class="cls-4" points="56 136.1 56.5 137.4 55.6 138.8 40.1 133.9 41.2 130.3 56 136.1"/>
            <polygon class="cls-5" points="54.9 137 54.2 138.2 54.6 136 53.5 138 53.8 135.7 52.5 137.3 52.7 135.1 51.3 137.3 51.4 134.4 50.3 137 50.6 134.4 49.1 136.6 49.4 133.4 47.7 136.2 48 133.9 46.8 135.9 47.2 133.6 46.1 135.6 46.7 132.6 45.2 135.4 45.5 132.3 43.9 134.7 44.6 131.9 43.1 134.1 43.4 131.9 42.2 134.4 42.5 132.1 41.3 133.8 41.7 131.2 50.4 130.9 55.5 135.6 54.9 137"/>
            <path class="cls-6" d="M40,131.3s4.3-7.7,13.1-3,3.8,9.2,3.8,9.2Z"/>
            <path class="cls-7" d="M56.9,137.5s4.1-5.1-3.5-9.2a16.5,16.5,0,0,0-4.8-1.5c.1.1,6.5,5.8,3.7,9Z"/>
          </g>
        </g>
        <g>
          <path class="cls-30" d="M21,3.5,44.2.1c2.5-.4,4.7.8,4.8,2.5l1.9,23.3L23.1,30,17.2,7.4C16.8,5.7,18.5,3.9,21,3.5Z"/>
          <path class="cls-31" d="M23.9,30.7l26.5-3.8a1.5,1.5,0,0,0,1.3-1.6h0A1.5,1.5,0,0,0,50,24.2L23.5,28.1a1.4,1.4,0,0,0-1.3,1.5h0A1.5,1.5,0,0,0,23.9,30.7Z"/>
          <path class="cls-30" d="M20.8,33.8,53.9,29a1.5,1.5,0,0,0,1.4-1.7h0a1.6,1.6,0,0,0-1.9-1.2l-33,4.8a1.6,1.6,0,0,0-1.5,1.7h0A1.7,1.7,0,0,0,20.8,33.8Z"/>
          <path class="cls-32" d="M22.3,4.8c-1.1.4-2.5,1-3,2.1a3.3,3.3,0,0,0,.1,2.2c.3,1.4.7,2.9,1,4.3l2.4,10.5.6,2.4a1,1,0,0,0,1.2.8c.5-.1,1-.5.9-1L24,19.5c-.8-3.3-1.6-6.6-2.3-10A8.3,8.3,0,0,1,21.3,8h0V7.7h0V7.6h0c0-.1.2-.2,0-.1h.2c.1-.2,0,0-.1,0l.3-.2h.2l.4-.2.9-.3a1,1,0,0,0,.5-1.3c-.2-.5-.8-.6-1.4-.5Z"/>
          <path class="cls-33" d="M44.8,2.2l.7,7.1,1.2,11.2.2,2.6a1,1,0,0,0,1.2.8,1.1,1.1,0,0,0,.9-1.1l-.7-7.1L47.1,4.5l-.2-2.6a1.1,1.1,0,0,0-1.2-.8,1,1,0,0,0-.9,1.1Z"/>
          <path class="cls-33" d="M42.7,30l9.5-1.5,1.4-.2c1.3-.2,1.1-1.9-.2-1.7l-9.6,1.5-1.4.2a.9.9,0,1,0,.3,1.7Z"/>
        </g>
      </g>
    </g>
  </g>
</svg>
