<svg xmlns="http://www.w3.org/2000/svg" xmlns:xlink="http://www.w3.org/1999/xlink" width="86.9" height="133.6" viewBox="0 0 86.9 133.6">
  <defs>
    <style>
      .cls-1, .cls-3 {
        fill: none;
      }

      .cls-2 {
        fill: #d9d9d9;
      }

      .cls-3 {
        stroke: #c6c6c5;
        stroke-miterlimit: 10;
        stroke-width: 0.23px;
      }

      .cls-4 {
        fill: #c6c6c5;
      }

      .cls-5 {
        fill: #efc400;
      }

      .cls-6 {
        fill: #f8e08c;
        opacity: 0.8;
      }

      .cls-7 {
        fill: #e8bf00;
      }

      .cls-8 {
        fill: #b1b1b1;
      }

      .cls-9 {
        fill: #ececec;
      }

      .cls-10 {
        fill: #d3d3d3;
      }

      .cls-11 {
        fill: #cfcfcf;
      }

      .cls-12 {
        fill: #a7a6a6;
      }

      .cls-13 {
        fill: #3c3c3b;
      }

      .cls-14 {
        fill: #363635;
      }

      .cls-15 {
        fill: #7c7b7b;
      }

      .cls-16, .cls-18 {
        fill: #ffec00;
      }

      .cls-16 {
        opacity: 0.2;
      }

      .cls-17 {
        fill: #6f6f6e;
      }

      .cls-18 {
        opacity: 0.21;
      }

      .cls-19 {
        fill: #d10a11;
      }

      .cls-20 {
        fill: #c50c0e;
      }

      .cls-21 {
        fill: #bf0d0d;
      }

      .cls-22 {
        fill: #b60e0c;
      }

      .cls-23 {
        fill: #e3e3e2;
      }

      .cls-24 {
        fill: #bae1f1;
      }

      .cls-25 {
        clip-path: url(#clip-path);
      }

      .cls-26 {
        fill: #d0e9f2;
      }

      .cls-27 {
        fill: #80c7e4;
      }

      .cls-28 {
        fill: #b17f49;
      }

      .cls-29 {
        fill: #aa7a46;
      }

      .cls-30 {
        fill: #5c5c5b;
      }

      .cls-31 {
        fill: #e20613;
      }

      .cls-32 {
        fill: #575756;
      }

      .cls-33 {
        fill: #686868;
      }
    </style>
    <clipPath id="clip-path">
      <rect class="cls-1" x="29.6" y="34.8" width="44.4" height="31.45" rx="15" transform="translate(101.7 103) rotate(-177.9)"/>
    </clipPath>
  </defs>
  <g id="Camada_2" data-name="Camada 2">
    <g id="Camada_1-2" data-name="Camada 1">
      <g>
        <g>
          <g>
            <g>
              <path class="cls-2" d="M56.9,75.5a34.8,34.8,0,0,0,2.2,7.8c1.1,2.3,2.7,4.3,4.4,5l1.2.3a7.5,7.5,0,0,0,1.5,0,6.2,6.2,0,0,0,2.7-.9,11.1,11.1,0,0,0,4.2-4.6l7.4,4.5a20.8,20.8,0,0,1-3.7,4.1,21.5,21.5,0,0,1-4.9,2.8,14.7,14.7,0,0,1-5.8.9l-2.8-.5a9,9,0,0,1-2.8-1.3,10.8,10.8,0,0,1-2.3-1.8l-1.7-2.2a18.6,18.6,0,0,1-1.9-4.7,32.6,32.6,0,0,1-1.3-9.3Z"/>
              <path class="cls-3" d="M55.3,77.6c.6,4.1,2.4,12.9,8.9,14.2s9.7-2.6,11.6-5.1"/>
              <path class="cls-4" d="M58,82.2s-2.7,1.6-3.2,2.4S55.3,82.8,58,82.2Z"/>
              <path class="cls-4" d="M59.2,84.8s-2.6,1.7-3,2.6S56.5,85.6,59.2,84.8Z"/>
              <path class="cls-4" d="M60.7,87s-2.2,2.2-2.5,3.2S58.2,88.3,60.7,87Z"/>
              <path class="cls-4" d="M62.2,88.9s-1.3,2.9-1.2,3.9S60.4,91.1,62.2,88.9Z"/>
              <path class="cls-4" d="M64.3,89.9s-.6,3.1-.2,4S63,92.4,64.3,89.9Z"/>
              <path class="cls-4" d="M66.9,89.6s.3,3.4.9,4.3S66.2,92.6,66.9,89.6Z"/>
              <path class="cls-4" d="M69.4,88.7s1.3,3.6,2.2,4.4S69.6,92.1,69.4,88.7Z"/>
              <path class="cls-4" d="M71.1,87.2s2.3,3.7,3.5,4.4S72.2,90.9,71.1,87.2Z"/>
              <path class="cls-4" d="M57.4,79.9a13.1,13.1,0,0,0-3.5,1.2A3.9,3.9,0,0,1,57.4,79.9Z"/>
            </g>
            <g>
              <path class="cls-5" d="M84,75.2l-2.4,4.4a3.5,3.5,0,0,1,.7,3.1A3.6,3.6,0,0,1,78,85.2,3.4,3.4,0,0,1,75.6,81,3.5,3.5,0,0,1,79,78.4l-.2-4.8a7.9,7.9,0,0,0-7.2,5.8A7.5,7.5,0,0,0,77,88.8a7.9,7.9,0,0,0,9.6-5.6A7.5,7.5,0,0,0,84,75.2Z"/>
              <ellipse class="cls-6" cx="85.2" cy="81.3" rx="1" ry="1" transform="translate(-31.9 69.2) rotate(-37.8)"/>
              <path class="cls-7" d="M72.6,77.2c2.9,2.9,1.2,9.9,1.2,9.9a7.6,7.6,0,0,1-2.2-7.7A7.4,7.4,0,0,1,72.6,77.2Z"/>
            </g>
          </g>
          <circle class="cls-8" cx="55.2" cy="74.7" r="2.9"/>
        </g>
        <g>
          <g>
            <path class="cls-9" d="M36,101.8a42.1,42.1,0,0,1-2.8,4.1l-2.9,3.9-3.4,3.8a31.6,31.6,0,0,1-3.8,3.4,37,37,0,0,1-4.4,2.9l-4.4,2.3-4.9,1.9a19.8,19.8,0,0,1-5.9.9l.4-8.1a15.6,15.6,0,0,0,3.3-.5,20.3,20.3,0,0,0,3.9-1.4,33.9,33.9,0,0,0,3.9-1.8,24.6,24.6,0,0,0,3.6-2.2,36.7,36.7,0,0,0,6.1-5.8A87.2,87.2,0,0,0,30,98.1Z"/>
            <polygon class="cls-10" points="21.4 105 30.5 112.9 38.7 102.8 29.9 96.6 21.4 105"/>
            <g>
              <polygon class="cls-2" points="10.8 131.6 10.3 132.9 8.7 133.4 0 119 3.3 117.1 10.8 131.6"/>
              <polygon class="cls-11" points="9.4 131.6 8 132 9.8 130.6 7.6 131.3 9.4 129.8 7.3 130.1 8.9 128.6 6.4 129.3 8.4 127.2 5.8 128.4 7.8 126.6 5.1 127.2 7.5 125 4.4 126 6.1 124.5 3.9 125.1 5.7 123.7 3.5 124.4 6 122.5 3 123.6 5.2 121.5 2.5 122.2 4.8 120.6 2.2 121.2 3.9 119.7 1.3 120.8 3 119.3 1 119.8 3.1 118.1 10 123.8 10.8 130.9 9.4 131.6"/>
              <path class="cls-8" d="M1.7,117s8.3-2.9,12.1,6.6-3.2,9.7-3.2,9.7Z"/>
              <path class="cls-12" d="M10.6,133.3s6.5-1,3.3-9.4a12.7,12.7,0,0,0-2.7-4.4c.1.1,1.2,8.8-3,9.3Z"/>
            </g>
          </g>
          <g>
            <g>
              <g>
                <path class="cls-13" d="M32.6,69.2S23,68.9,19.7,84.6s9.2,18.8,23.6,18.8c16.3,0,13.7-12.8,13.3-21s-7.1-10.9-11-11.7A121.2,121.2,0,0,0,32.6,69.2Z"/>
                <path class="cls-14" d="M45.7,96.2s-13.2.2-21,3.7A13.6,13.6,0,0,1,21.6,97c-.9-1.4,4.4-6.2,4.4-6.2l11.1-7.6,7.2,1.7L48,91.2Z"/>
              </g>
              <g>
                <path class="cls-15" d="M44.1,69.7,38.5,94.5s-9.5.9-12.6,1.7L19.7,98S16.5,87.8,19,81.6c4.4-10.9,11.6-12.8,11.6-12.8Z"/>
                <path class="cls-16" d="M43.6,69.6,38.2,93.9S25.4,95,19.5,97.4l.2.6s7.3-2.1,8.7-2.3l10.1-1.2,5.6-24.8Z"/>
                <path class="cls-17" d="M19.5,97.4c-.6-2.3-2.6-10.5-.5-15.8,4.4-10.9,11.6-12.8,11.6-12.8l10.7.7h.3S21.6,76.5,19.5,97.4Z"/>
              </g>
              <g>
                <path class="cls-15" d="M50.3,71.2,48,95.9l7.9,6.5a44.9,44.9,0,0,0,2.8-19.1c-.6-11-3.8-10.9-3.8-10.9Z"/>
                <path class="cls-17" d="M50.3,71.2l1.7.4a21.5,21.5,0,0,1-.5,4.7c-.4,1.5,0,10.6,0,10.6L49.4,97.1,48,95.9Z"/>
                <polygon class="cls-18" points="56.2 101.6 48.3 95.4 50.7 71.2 50.3 71.2 48 95.9 55.9 102.4 56.2 101.6"/>
              </g>
              <path class="cls-2" d="M22,97.7c4.2,4.7,12.3,6,21.3,6a15.9,15.9,0,0,0,9.1-2.5C40.7,96,22.1,97.7,22,97.7Z"/>
            </g>
            <g>
              <path class="cls-19" d="M51.5,75.7,52,86.2a.9.9,0,0,1-.1.7l-3.8,5.4a1,1,0,0,1-1.8-.3l-2-6.4a2.2,2.2,0,0,1,0-.8l3.9-9.4Z"/>
              <path class="cls-20" d="M47.1,92.7c-.3,0-.6-.3-.8-.7l-2-6.4a2.2,2.2,0,0,1,0-.8l3.5-8.4,1.2.2s-3.7,7.4-3.7,8.7S46.7,91.2,47.1,92.7Z"/>
              <path class="cls-21" d="M49.7,77.6c3.4.6,4.4-4.8,2.1-5.6s-3.9.1-4.5,2S47.1,77.1,49.7,77.6Z"/>
              <path class="cls-22" d="M48.1,77.1c-1.1-.6-1.2-1.6-.8-3.1s1.1-2.4,2.6-2.4h0s-2.2,2.5-1.8,5.3Z"/>
            </g>
          </g>
          <g>
            <g>
              <g>
                <path class="cls-23" d="M33,71.4c16.4.8,39,4.7,41-19,1.7-12.1-6.9-23.7-19-24.1l-20.4-.8C8.1,26.6,6.5,70.4,33,71.4Z"/>
                <g>
                  <path class="cls-24" d="M43.5,65.8c12.7.8,29.5,3.1,30.1-15S56.7,34.9,44.7,34.7C25.3,34.1,24.1,65,43.5,65.8Z"/>
                  <g class="cls-25">
                    <g>
                      <polygon class="cls-26" points="31 40.2 54.9 64.6 18.8 63.2 31 40.2"/>
                      <polygon class="cls-26" points="38 33.4 64.4 62.3 71.6 63.4 40.9 29.5 38 33.4"/>
                      <polygon class="cls-26" points="50.2 32.5 74.9 60.3 77.6 57.2 52.6 31.3 50.2 32.5"/>
                    </g>
                  </g>
                  <path class="cls-9" d="M60.7,35.8a12.8,12.8,0,0,1,5.1,1.3,11.4,11.4,0,0,1,4.1,3.1,12.9,12.9,0,0,1,2.7,4.5,13.8,13.8,0,0,1,.9,5.3v2.7A14.2,14.2,0,0,1,72.1,58a13.9,13.9,0,0,1-3,4.3,15.2,15.2,0,0,1-4.3,2.8,13.5,13.5,0,0,1-5.2.8L43,65.3A11.4,11.4,0,0,1,37.9,64a12.7,12.7,0,0,1-4.2-3.1A17.9,17.9,0,0,1,31,56.5a14.5,14.5,0,0,1-.8-5.4V48.4a16.3,16.3,0,0,1,1.2-5.3,14.3,14.3,0,0,1,3.1-4.2,11.1,11.1,0,0,1,4.3-2.8,11.7,11.7,0,0,1,5.2-.9l16.6.6m0-.7-16.6-.6c-7.6-.3-14.1,6-14.4,13.9v2.7A14.2,14.2,0,0,0,43,66l16.5.6c7.7.3,14.2-6,14.5-13.9V50A14.2,14.2,0,0,0,60.7,35.1Z"/>
                </g>
              </g>
              <g>
                <path class="cls-27" d="M69.5,52.2H66.7s-.1-4.8-3-5.3-3.1,5-3.1,5H57.8s-.7-8,5.8-7.8S69.5,52.2,69.5,52.2Z"/>
                <path class="cls-27" d="M38.8,51h3.1s.5-4.7,3.7-5,3,5.3,3,5.3h3.1S53,43.6,46,43.3,38.8,51,38.8,51Z"/>
              </g>
            </g>
            <g>
              <path class="cls-28" d="M44.9,54.7a8.8,8.8,0,0,1,9.3,4.8,8.9,8.9,0,0,1,9.6-4.2c6.7,1.3,3.3,12.6,15,8,0,0-6.7,19.2-24.4,6.8a1.2,1.2,0,0,0-1.3-.1c-18.7,11.2-26.3-8.2-26.3-8.2C38.1,67.2,38.1,55.5,44.9,54.7Z"/>
              <path class="cls-29" d="M52.1,67.6l-1.2.7-.7.3h-.6l-2,.7-2.2.5H40.5a14.3,14.3,0,0,1-2.7-.9l-.4-.2h-.2s-.2-.1-.1,0h-.3l-.4-.2-1.6-1.1-1.4-1.3A12.4,12.4,0,0,1,32,64.1a1,1,0,0,0-1.4,0,1.2,1.2,0,0,0-.1,1.5,16.3,16.3,0,0,0,5.8,5,14.9,14.9,0,0,0,5.9,1.7,19.4,19.4,0,0,0,9.1-1.9l1.7-.9a1.1,1.1,0,0,0,.4-1.5.9.9,0,0,0-1.3-.4Z"/>
              <path class="cls-29" d="M56.6,67.7l1.1.8.6.4c.1,0-.2-.1-.1-.1a.1.1,0,0,0,.1.1h.1l.4.2,1.6.7,2,.7h.9l1.1.2h2.3a11.7,11.7,0,0,0,2.5-.7h.7c-.2.1.1,0,.1,0h.2l.3-.2,1.5-1,1.3-1.2a11.5,11.5,0,0,0,1.4-1.7.8.8,0,0,1,1.2.1,1.4,1.4,0,0,1,0,1.5,15.9,15.9,0,0,1-5.5,4.6,11.2,11.2,0,0,1-5.3,1.3,15.7,15.7,0,0,1-8-2.5,7.1,7.1,0,0,1-1.4-1,1.4,1.4,0,0,1-.3-1.5c.3-.5.8-.7,1.2-.4Z"/>
            </g>
          </g>
          <g>
            <path class="cls-9" d="M41.7,101l12.7,11.5,1.8,1.7,1.8,1.9q1.8,2,3.3,3.9,3.2,3.8,6,7.8l-6.6,4.7c-1.8-2.6-3.6-5.2-5.5-7.7l-2.9-3.6-1.5-1.6-1.6-1.7L35.5,104.3Z"/>
            <polygon class="cls-2" points="42.3 113.3 50.3 105.8 40.8 99.1 31.6 101.7 42.3 113.3"/>
            <g>
              <polygon class="cls-2" points="75.5 128.1 76.5 129 76.4 130.7 59.6 133.6 59 129.8 75.5 128.1"/>
              <polygon class="cls-11" points="74.9 129.4 74.8 130.8 74.1 128.7 74 130.9 73.2 128.8 72.8 130.8 72 128.7 71.7 131.4 70.4 128.7 70.6 131.5 69.7 129 69.2 131.8 68 128.8 67.8 132 67 129.8 66.8 132.2 66.1 130 66 132.3 65.1 129.3 65.1 132.5 63.9 129.6 63.6 132.4 62.9 129.7 62.5 132.4 61.7 130.2 61.8 133 61 130.8 60.7 132.9 59.9 130.4 67.8 126 74.8 127.8 74.9 129.4"/>
              <path class="cls-8" d="M58.3,131.2s.4-8.8,10.7-8.8,8,6.5,8,6.5Z"/>
              <path class="cls-12" d="M77,128.9s1.4-6.4-7.6-6.5a13.8,13.8,0,0,0-5.2.9c.1,0,8.7,2.1,7.7,6.2Z"/>
            </g>
          </g>
        </g>
        <g>
          <g>
            <path class="cls-2" d="M24.8,74.2a25.5,25.5,0,0,0-7.6,2.7c-2.3,1.2-4.2,2.9-4.7,4.6a2.7,2.7,0,0,0-.3,1.2,7.1,7.1,0,0,0,.1,1.5,7.9,7.9,0,0,0,1,2.7,12.3,12.3,0,0,0,5,3.9l-4.2,7.6a23,23,0,0,1-4.2-3.5,16.5,16.5,0,0,1-3.2-4.6,14.3,14.3,0,0,1-1.2-5.8,14.5,14.5,0,0,1,.4-2.8,14.2,14.2,0,0,1,1-2.9,10.8,10.8,0,0,1,1.8-2.4,12.4,12.4,0,0,1,2.1-1.8,15.7,15.7,0,0,1,4.5-2.2,32,32,0,0,1,9.2-1.8Z"/>
            <path class="cls-3" d="M22.6,72.7c-4.1.8-12.7,3.2-13.6,9.7s3.2,9.5,5.7,11.3"/>
            <path class="cls-4" d="M18.2,75.7s-1.7-2.7-2.6-3.1S17.4,73,18.2,75.7Z"/>
            <path class="cls-4" d="M15.7,77s-1.9-2.5-2.8-2.9S14.7,74.4,15.7,77Z"/>
            <path class="cls-4" d="M13.6,78.7a18.9,18.9,0,0,0-3.3-2.4S12.1,76.3,13.6,78.7Z"/>
            <path class="cls-4" d="M11.7,80.3a15.2,15.2,0,0,0-3.9-1S9.5,78.6,11.7,80.3Z"/>
            <path class="cls-4" d="M10.9,82.4s-3.1-.4-4,0S8.3,81.3,10.9,82.4Z"/>
            <path class="cls-4" d="M11.4,85s-3.4.5-4.3,1.1S8.4,84.5,11.4,85Z"/>
            <path class="cls-4" d="M12.4,87.4s-3.5,1.5-4.2,2.5S9,87.8,12.4,87.4Z"/>
            <path class="cls-4" d="M14,89.1s-3.6,2.5-4.1,3.7S10.3,90.3,14,89.1Z"/>
            <path class="cls-4" d="M20.5,74.9A12.5,12.5,0,0,0,19,71.5,3.9,3.9,0,0,1,20.5,74.9Z"/>
          </g>
          <g>
            <path class="cls-5" d="M26.8,101.1l-4.6-2a3.6,3.6,0,0,1-3,.8,3.6,3.6,0,0,1-2.8-4.1,3.4,3.4,0,0,1,4.1-2.7,3.6,3.6,0,0,1,2.7,3.3l4.9-.5a8,8,0,0,0-6.2-6.8A7.5,7.5,0,0,0,12.8,95a7.9,7.9,0,0,0,6.1,9.2A7.5,7.5,0,0,0,26.8,101.1Z"/>
            <ellipse class="cls-6" cx="20.8" cy="102.7" rx="1" ry="1" transform="translate(-62.6 39.2) rotate(-41.3)"/>
            <path class="cls-7" d="M24.1,89.9c-2.8,3.1-9.8,1.8-9.8,1.8a7.4,7.4,0,0,1,7.6-2.6A5.8,5.8,0,0,1,24.1,89.9Z"/>
          </g>
          <circle class="cls-8" cx="25.5" cy="72.4" r="2.9"/>
        </g>
        <g>
          <path class="cls-30" d="M21.9,2.9,45.1,0c2.5-.3,4.6,1,4.7,2.7L51.2,26l-28,3.5L18,6.7C17.6,4.9,19.4,3.2,21.9,2.9Z"/>
          <path class="cls-31" d="M24,30.2,50.6,27a1.4,1.4,0,0,0,1.3-1.5h0a1.4,1.4,0,0,0-1.6-1.1L23.7,27.5A1.6,1.6,0,0,0,22.3,29h0A1.6,1.6,0,0,0,24,30.2Z"/>
          <path class="cls-30" d="M20.9,33.2l33.1-4a1.5,1.5,0,0,0,1.5-1.6h0a1.6,1.6,0,0,0-1.8-1.3l-33.2,4A1.6,1.6,0,0,0,19,31.9h0A1.7,1.7,0,0,0,20.9,33.2Z"/>
          <path class="cls-32" d="M23.2,4.2c-1.2.4-2.6,1-3.1,2.1a3.8,3.8,0,0,0,0,2.1l.9,4.4c.7,3.5,1.4,7,2.2,10.5a22.1,22.1,0,0,0,.5,2.5.9.9,0,0,0,1.1.8c.6-.1,1.1-.5,1-1.1s-.9-4.3-1.4-6.5L22.3,8.9,22,7.3h0V7c0,.2,0,.1.1,0s.1-.2,0-.1h.1l.2-.2h.2l.4-.2.9-.3a.9.9,0,0,0,.6-1.2,1,1,0,0,0-1.3-.6Z"/>
          <path class="cls-33" d="M45.7,2.2l.5,7.1L47,20.5l.2,2.6a1,1,0,0,0,1.2.8.9.9,0,0,0,.9-1l-.5-7.1L47.9,4.6,47.7,2a.9.9,0,0,0-1.1-.8.9.9,0,0,0-.9,1Z"/>
          <path class="cls-33" d="M42.8,30l9.6-1.3,1.4-.2a.9.9,0,1,0-.2-1.7L44,28.1H42.6a.9.9,0,1,0,.2,1.8Z"/>
        </g>
      </g>
    </g>
  </g>
</svg>
